HIERARCHY
ROOT Hips
{
	OFFSET 0.00 0.00 0.00
	CHANNELS 6 Xposition Yposition Zposition Xrotation Yrotation Zrotation
	JOINT Spine
	{
		OFFSET 0.00000 5.19526 0.00000
		CHANNELS 3 Xrotation Yrotation Zrotation
		JOINT Head
		{
			OFFSET 0.00000 15.65388 0.00000
			CHANNELS 3 Xrotation Yrotation Zrotation
			End Site
			{
				OFFSET 0.00000 4.52755 0.00000
			}
		}
		JOINT LeftShoulder
		{
			OFFSET 0.00000 10.32977 0.00000
			CHANNELS 3 Xrotation Yrotation Zrotation
			JOINT LeftArm
			{
				OFFSET 6.99601 0.00000 0.00000
				CHANNELS 3 Xrotation Yrotation Zrotation
				JOINT LeftForeArm
				{
					OFFSET 10.20930 0.00000 0.00000
					CHANNELS 3 Yrotation Zrotation Xrotation
					JOINT LeftHand
					{
						OFFSET 8.56316 0.00000 0.00000
						CHANNELS 3 Xrotation Yrotation Zrotation
						JOINT LeftHandThumb1
						{
							OFFSET 0.00000 0.00000 0.00000
							CHANNELS 3 Xrotation Zrotation Yrotation
							End Site
							{
								OFFSET 0.00000 0.00000 3.93700
							}
						}
						End Site
						{
							OFFSET 3.93700 0.00000 0.00000
						}
					}
				}
			}
		}
		JOINT RightShoulder
		{
			OFFSET 0.00000 10.32977 0.00000
			CHANNELS 3 Xrotation Yrotation Zrotation
			JOINT RightArm
			{
				OFFSET -6.99601 0.00000 0.00000
				CHANNELS 3 Xrotation Yrotation Zrotation
				JOINT RightForeArm
				{
					OFFSET -10.20930 0.00000 0.00000
					CHANNELS 3 Yrotation Zrotation Xrotation
					JOINT RightHand
					{
						OFFSET -8.56316 0.00000 0.00000
						CHANNELS 3 Xrotation Yrotation Zrotation
						JOINT RightHandThumb1
						{
							OFFSET 0.00000 0.00000 0.00000
							CHANNELS 3 Xrotation Zrotation Yrotation
							End Site
							{
								OFFSET 0.00000 0.00000 3.93700
							}
						}
						End Site
						{
							OFFSET -3.93700 0.00000 0.00000
						}
					}
				}
			}
		}
	}
	JOINT LeftUpLeg
	{
		OFFSET 3.35136 0.00000 0.00000
		CHANNELS 3 Xrotation Yrotation Zrotation
		JOINT LeftLeg
		{
			OFFSET 0.00000 -16.34683 0.00000
			CHANNELS 3 Xrotation Yrotation Zrotation
			JOINT LeftFoot
			{
				OFFSET 0.00000 -13.95979 0.00000
				CHANNELS 3 Xrotation Yrotation Zrotation
				JOINT LeftToeBase
				{
					OFFSET 0.00000 -1.33694 4.98954
					CHANNELS 3 Xrotation Yrotation Zrotation
					End Site
					{
						OFFSET 0.00000 0.00000 2.95275
					}
				}
			}
		}
	}
	JOINT RightUpLeg
	{
		OFFSET -3.35136 0.00000 0.00000
		CHANNELS 3 Xrotation Yrotation Zrotation
		JOINT RightLeg
		{
			OFFSET 0.00000 -16.34683 0.00000
			CHANNELS 3 Xrotation Yrotation Zrotation
			JOINT RightFoot
			{
				OFFSET 0.00000 -13.95979 0.00000
				CHANNELS 3 Xrotation Yrotation Zrotation
				JOINT RightToeBase
				{
					OFFSET 0.00000 -1.33694 4.98954
					CHANNELS 3 Xrotation Yrotation Zrotation
					End Site
					{
						OFFSET 0.00000 0.00000 2.95275
					}
				}
			}
		}
	}
}
MOTION
Frames: 13
Frame Time: 0.008333
 -5.8523 31.7751 -4.8821 3.8108 5.0673 2.1894 -6.6862 -6.1100 -3.5169 8.1419 11.3802 -0.2492 5.9419 20.6037 23.7185 -40.3653 -2.0607 -28.0586 -6.7519 0.0000 -29.5986 -1.6661 12.9885 7.3741 33.1476 -0.0000 26.2537 -10.9896 -6.6708 -34.8268 -20.3918 6.9996 34.5352 5.6736 -0.0000 24.0486 4.1730 -14.1814 16.5842 32.8623 0.0000 -24.3270 -0.0022 -5.7094 -4.6485 2.0232 -0.0000 -0.0000 -15.3369 21.6969 -3.1973 11.0942 -0.0000 -0.0000 2.7813 1.9705 -0.8265 -2.6779 -0.0000 -0.0000 -14.3345 -12.9844 2.2770 4.0788 0.0000 0.0000
 -5.8519 31.7750 -4.8855 3.8128 5.0770 2.1841 -6.6747 -6.1290 -3.5105 8.1347 11.3931 -0.2423 5.9384 20.6145 23.7140 -40.3710 -2.0370 -28.0727 -6.7673 0.0000 -29.6861 -1.6898 13.0029 7.4697 33.1476 -0.0000 26.2537 -10.9786 -6.6740 -34.8295 -20.4209 6.9792 34.5434 5.6715 -0.0000 24.0832 4.1653 -14.1703 16.5671 32.8623 0.0000 -24.3270 -0.0050 -5.7074 -4.6446 2.0107 -0.0000 -0.0000 -15.3391 21.6878 -3.1856 11.1579 0.0000 0.0000 2.7776 1.9763 -0.8230 -2.6857 -0.0000 -0.0000 -14.3318 -13.0010 2.3063 4.1128 0.0000 -0.0000
 -5.8519 31.7753 -4.8890 3.8212 5.0789 2.1790 -6.6722 -6.1343 -3.5067 8.1315 11.3863 -0.2408 5.9332 20.6099 23.7093 -40.3682 -2.0009 -28.0777 -6.8136 0.0000 -29.7569 -1.7147 13.0008 7.5797 33.1476 -0.0000 26.2537 -10.9865 -6.6775 -34.8306 -20.3782 7.0045 34.5454 5.6751 -0.0000 24.0511 4.1556 -14.1515 16.5509 32.8623 0.0000 -24.3270 -0.0231 -5.7065 -4.6401 2.0180 -0.0000 0.0000 -15.3328 21.6849 -3.1917 11.1086 -0.0000 -0.0000 2.7628 1.9753 -0.8195 -2.6878 0.0000 -0.0000 -14.3266 -13.0105 2.3207 4.1571 0.0000 -0.0000
 -5.8510 31.7751 -4.8924 3.8250 5.0803 2.1752 -6.6581 -6.1443 -3.4950 8.1127 11.4133 -0.2433 5.9541 20.6357 23.6747 -40.4043 -1.9992 -28.0800 -6.8219 0.0000 -29.8393 -1.7226 12.9664 7.6341 33.1476 -0.0000 26.2537 -11.0018 -6.6735 -34.8462 -20.3541 7.0011 34.5553 5.6937 -0.0000 24.0504 4.1679 -14.1594 16.5888 32.8623 0.0000 -24.3270 -0.0305 -5.7147 -4.6399 2.0107 -0.0000 -0.0000 -15.3320 21.6835 -3.1690 11.0990 0.0000 0.0000 2.7502 1.9642 -0.8179 -2.6825 0.0000 -0.0000 -14.3321 -13.0065 2.3384 4.1890 -0.0000 0.0000
 -5.8510 31.7757 -4.8960 3.8321 5.0737 2.1782 -6.6564 -6.1333 -3.5057 8.1225 11.3753 -0.2347 5.9477 20.6126 23.6892 -40.4201 -1.9195 -28.0915 -6.8849 0.0000 -29.8608 -1.7542 12.9853 7.7614 33.1476 -0.0000 26.2537 -10.9949 -6.6801 -34.8479 -20.4223 6.9476 34.5830 5.6797 -0.0000 24.1351 4.1653 -14.1518 16.5873 32.8623 0.0000 -24.3270 -0.0530 -5.7013 -4.6457 2.0330 -0.0000 -0.0000 -15.3324 21.6977 -3.2097 11.1372 -0.0000 0.0000 2.7336 1.9610 -0.8206 -2.6794 -0.0000 -0.0000 -14.3244 -13.0004 2.3465 4.1571 -0.0000 0.0000
 -5.8547 31.7760 -4.9029 3.8635 5.0730 2.1621 -6.6721 -6.1421 -3.5055 8.1201 11.3740 -0.2220 5.9364 20.6123 23.6983 -40.4491 -1.8659 -28.0987 -6.9250 0.0000 -29.8764 -1.7726 12.9677 7.8524 33.1476 -0.0000 26.2537 -10.9858 -6.6730 -34.8345 -20.4217 6.9260 34.5889 5.6892 -0.0000 24.1387 4.1658 -14.1177 16.6263 32.8623 0.0000 -24.3270 -0.1045 -5.6992 -4.6227 2.0537 -0.0000 -0.0000 -15.3324 21.6791 -3.2242 11.0860 0.0000 -0.0000 2.6825 1.9831 -0.8014 -2.6662 0.0000 0.0000 -14.3168 -13.0191 2.3379 4.1566 0.0000 0.0000
 -5.8548 31.7760 -4.9078 3.8785 5.0678 2.1613 -6.6719 -6.1440 -3.5111 8.1159 11.3767 -0.2052 5.9143 20.6170 23.7032 -40.4632 -1.8394 -28.1119 -6.9448 0.0000 -29.9109 -1.7909 12.9336 7.9527 33.1476 -0.0000 26.2537 -10.9841 -6.6730 -34.8239 -20.3976 6.9397 34.5860 5.6841 -0.0000 24.1220 4.1727 -14.1356 16.6326 32.8623 0.0000 -24.3270 -0.1301 -5.6999 -4.6264 2.0569 -0.0000 -0.0000 -15.3331 21.7045 -3.2487 11.1060 0.0000 0.0000 2.6541 2.0012 -0.8030 -2.6530 0.0000 0.0000 -14.3061 -13.0216 2.2872 4.0846 0.0000 -0.0000
 -5.8504 31.7760 -4.9079 3.8605 5.0661 2.1757 -6.6472 -6.1463 -3.5075 8.1364 11.4304 -0.2533 5.9173 20.6124 23.6734 -40.4529 -1.8314 -28.1071 -6.9542 0.0000 -29.9570 -1.8080 12.9059 8.0443 33.1476 -0.0000 26.2537 -11.0183 -6.6594 -34.8453 -20.3583 6.9502 34.5956 5.6792 -0.0000 24.1243 4.1779 -14.1240 16.6650 32.8623 0.0000 -24.3270 -0.1060 -5.7263 -4.6447 2.0357 -0.0000 0.0000 -15.3184 21.7122 -3.2049 11.0845 -0.0000 0.0000 2.6807 1.9849 -0.8244 -2.6707 0.0000 -0.0000 -14.3064 -13.0079 2.2841 4.0977 0.0000 0.0000
 -5.8492 31.7764 -4.9107 3.8584 5.0631 2.1739 -6.6333 -6.1541 -3.5002 8.1351 11.4173 -0.2436 5.9368 20.6255 23.6502 -40.5105 -1.7911 -28.1076 -6.9871 0.0000 -29.9108 -1.8209 12.9100 8.0983 33.1476 -0.0000 26.2537 -11.0132 -6.6619 -34.8500 -20.3500 6.9699 34.6075 5.6614 -0.0000 24.1061 4.1660 -14.1048 16.6409 32.8623 0.0000 -24.3270 -0.1080 -5.7283 -4.6467 2.0338 0.0000 0.0000 -15.3104 21.7264 -3.2021 11.0815 0.0000 -0.0000 2.6747 1.9647 -0.8252 -2.6668 0.0000 0.0000 -14.2968 -12.9865 2.3199 4.0968 0.0000 -0.0000
 -5.8499 31.7770 -4.9138 3.8630 5.0558 2.1731 -6.6329 -6.1533 -3.5119 8.1604 11.3813 -0.2315 5.9431 20.6340 23.6669 -40.5396 -1.7527 -28.1290 -7.0174 0.0000 -29.9083 -1.8363 12.8866 8.1804 33.1476 -0.0000 26.2537 -11.0133 -6.6461 -34.8295 -20.3127 6.9779 34.6000 5.6508 -0.0000 24.1008 4.1705 -14.1176 16.6440 32.8623 0.0000 -24.3270 -0.1192 -5.7343 -4.6461 2.0349 -0.0000 -0.0000 -15.3110 21.7381 -3.1875 11.0997 -0.0000 -0.0000 2.6618 1.9639 -0.8244 -2.6631 0.0000 0.0000 -14.2847 -12.9787 2.3214 4.1059 -0.0000 0.0000
 -5.8542 31.7765 -4.9207 3.8894 5.0441 2.1522 -6.6365 -6.1365 -3.5075 8.1470 11.3608 -0.2069 5.9214 20.6149 23.6946 -40.5594 -1.7002 -28.1356 -7.0532 0.0000 -29.9084 -1.8515 12.8851 8.2482 33.1476 -0.0000 26.2537 -11.0159 -6.6691 -34.8195 -20.2961 7.0013 34.6093 5.6438 -0.0000 24.0933 4.1752 -14.1115 16.6683 32.8623 0.0000 -24.3270 -0.1559 -5.7000 -4.6195 2.0414 0.0000 -0.0000 -15.3233 21.7145 -3.1859 11.0880 0.0000 -0.0000 2.6108 1.9843 -0.7975 -2.6403 0.0000 0.0000 -14.2932 -12.9874 2.2980 4.1060 -0.0000 0.0000
 -5.8539 31.7756 -4.9248 3.8970 5.0356 2.1651 -6.6327 -6.1351 -3.5221 8.1660 11.4086 -0.2219 5.9237 20.6082 23.6836 -40.5577 -1.6859 -28.1103 -7.0645 0.0000 -29.8863 -1.8371 12.8486 8.2076 33.1476 -0.0000 26.2537 -11.0203 -6.6694 -34.8284 -20.2538 7.0326 34.6250 5.6375 -0.0000 24.0511 4.1824 -14.1145 16.6923 32.8623 0.0000 -24.3270 -0.1768 -5.6835 -4.6358 2.0516 -0.0000 -0.0000 -15.3186 21.7275 -3.2091 11.0962 0.0000 -0.0000 2.6447 2.1504 -0.8225 -2.7385 0.0000 -0.0000 -14.2552 -13.1296 2.2892 4.1298 0.0000 -0.0000
 -5.8495 31.7771 -4.9250 3.8857 5.0310 2.1662 -6.6228 -6.1432 -3.5096 8.2079 11.3878 -0.2533 5.9323 20.6083 23.6704 -40.5752 -1.6431 -28.1120 -7.1110 0.0000 -29.8451 -1.8523 12.8565 8.2697 33.1476 -0.0000 26.2537 -10.9997 -6.6606 -34.8230 -20.2461 7.0371 34.6120 5.6394 -0.0000 24.0793 4.1745 -14.0968 16.6818 32.8623 0.0000 -24.3270 -0.1615 -5.6902 -4.6486 2.0396 0.0000 0.0000 -15.3115 21.7672 -3.1996 11.0713 0.0000 0.0000 2.6209 1.9891 -0.8245 -2.6714 -0.0000 -0.0000 -14.2675 -12.9770 2.3263 4.0958 -0.0000 0.0000
